<svg id="Capa_1" data-name="Capa 1" xmlns="http://www.w3.org/2000/svg" viewBox="0 0 1280 1024"><defs><style>.cls-1{fill:#040006;}.cls-2{fill:#eacce0;}.cls-3{fill:none;stroke:#040006;stroke-miterlimit:10;stroke-width:0.28px;}.cls-4{fill:#ae3766;}.cls-5{fill:#aed3e4;}</style></defs><title>web</title><path class="cls-1" d="M.76,1023.39A193.21,193.21,0,0,1,39.17,962.1c17.35-18.62,38.54-32.81,59.5-47,21.75-14.71,43.75-27.6,69.31-34.45,23.65-6.33,48.11-9.06,71.64-15.86,26.1-7.53,48.53-21.69,69.8-38.27.72-.56-.29-1.56-1-1-20.82,16.23-42.8,30.16-68.32,37.65-24.36,7.16-49.76,9.83-74.22,16.58s-45.58,19-66.41,33.1c-20.65,13.93-41.64,27.83-59,45.84A194.82,194.82,0,0,0-.61,1023c-.33.85,1,1.21,1.37.37Z"/><path class="cls-1" d="M20.31,984.75c4.45,3.29,9.62,4,15,4.25a123,123,0,0,0,20.76-.38c6.61-.82,20.62-3.58,19-13.25-1.44-8.66-15-8.52-21.54-9-5.75-.38-11.48-.46-16.51,2.7-5.38,3.38-9.8,8.61-13.87,13.41l1.11.86c5.38-8,10.94-15.82,16.13-23.9,4.08-6.36,8-13.54,7.9-21.32,0-1.28.14-3.85-1.05-4.84-1.89-1.58-7.28-.91-9.54-.67-6.76.74-10.59,5.16-13.19,11.11-3.25,7.47-3.46,15.75-3.92,23.78-.23,3.94-1.69,11.1.11,14.55,1.12,2.14-.18-2.65-.33-3.39-1.12-5.4-2.34-23.54-10.44-23.15-5.17.25-7,9.67-6.76,13.59.55,7.62,10.82,12.55,16.4,16.32.76.51,1.47-.72.72-1.23C14,980,3.73,975,4.77,966.22c.24-2,.66-4.6,2-6.15,2.71-3.05,6.13-2.22,7.74.71a25,25,0,0,1,2.11,6.79c1.14,5.27,2.2,10.56,3.29,15.84a.73.73,0,0,0,.69.52l.26,0a.72.72,0,0,0,.71-.71c0-13.36-2.27-54,21.09-49.15,10.51,2.19-.71,20.46-4,25.44-5.08,7.82-10.44,15.46-15.66,23.18-.45.66.59,1.47,1.11.86,6.8-8,13.68-15.95,25-15.88a87.63,87.63,0,0,1,15.16,1.51c3.48.63,7.45,1.42,9,5.05,4.72,11.25-17.1,13.2-23.07,13.48-9.11.44-21.51,1.54-29.2-4.16-.74-.54-1.44.69-.72,1.23Z"/><path class="cls-1" d="M89.61,920.59c-3-6.18-7.09-13.49-7-20.55.07-4.67,2.12-9.74,4.12-13.88A10.06,10.06,0,0,1,88,883.84c1-1.13.13-1.46,1.59-.45,2.63,1.83,3.26,8.06,3.38,10.79.36,8.19-3,15.9-6.2,23.23L88,918c3.45-10.22,7.32-20.29,11.71-30.15,2-4.42,4.09-12.15,8.45-14.75,4.68-2.79,8.5.23,11.56,3.65,7.41,8.25-3.21,18.44-9.67,23.76-3.62,3-7.43,5.71-10.83,8.93s-6.22,6.75-9.69,9.78l1,1a52.8,52.8,0,0,1,22.36-14.38,43.32,43.32,0,0,1,14-2.49c4.09.11,6.23.93,7.43,5a24.39,24.39,0,0,1,.67,5.65c.31,6.21-1.25,10.38-6.61,13.83-4.47,2.89-9.84,5.63-15.3,4.69-4.89-.84-8.26-4.64-12.55-6.81A51.17,51.17,0,0,0,88.94,922a.71.71,0,0,0-.54,1.3c6.23,3.66,10.88,11.63,3.93,17.13-5.21,4.11-5.24-4.43-5.29-7.27-.06-3.61,0-7.22,0-10.82a.71.71,0,0,0-1.42,0c0,2.59-1.83,26.52,6.66,20,2.33-1.78,5.4-5.77,5.41-8.84,0-4.77-4.9-9.3-8.6-11.47l-.54,1.3a49.66,49.66,0,0,1,11.25,3.52c3,1.49,5.38,3.76,8.27,5.33a15.62,15.62,0,0,0,13.21.75c4.37-1.54,9.87-4.19,12.73-8s2.69-9.3,2.17-13.88c-.33-2.94-.94-6.61-3.7-8.32-3.44-2.12-9.24-.71-13,0a54,54,0,0,0-30,16.49.71.71,0,0,0,1,1c5-4.37,9.14-9.57,14.33-13.79,4.85-3.94,10-7.57,13.94-12.53,2.46-3.14,5.86-8.36,5.32-12.59-.34-2.73-3.13-5.46-5-7.21-2.21-2.06-4.41-3.84-7.54-3.49-4.55.52-6.73,3.06-8.66,7a331.73,331.73,0,0,0-16.28,40c-.25.75,1,1.29,1.3.55,3.71-8.52,7.61-17.61,6.07-27.11-.38-2.31-2.69-12.34-6.33-9.33s-5.49,11.46-6.2,15.64c-1.4,8.26,3.43,16.78,6.88,24,.39.82,1.61.1,1.22-.72Z"/><path class="cls-1" d="M169.15,879.59c-.32-4.92-.39-9.87-.65-14.81-.31-5.94.59-10,5.2-13.84,2.23-1.86,2.57-2.83,4.41-.26,2.43,3.39,2.17,7.63,1,11.57-1.68,5.94-5.82,10.73-10.08,15a.71.71,0,0,0,.86,1.11c7.66-3.67,12-11.46,18.91-16.18,4.48-3.06,11.52-6.83,15-.4.53,1,2.21,5.81,1.49,6.6-.32.36-1.6.5-2,.62-10.89,3.07-22.13,4.84-33.08,7.71a.71.71,0,0,0,.19,1.39,75,75,0,0,1,17.75,1.44c4.15.87,7.23,1.73,8.49,6.3,1,3.61-.63,6.13-3.82,7.43-2.51,1-4.86,1.74-7.27-.16-1.82-1.44-3-3.89-4.47-5.69a34.6,34.6,0,0,0-9.48-8.11.71.71,0,0,0-.72,1.22,37.82,37.82,0,0,1,10.79,10c1.32,1.72,2.69,4.2,4.8,5,2.95,1.15,9.24-1,11.09-3.52,2.22-3,.74-10.08-2.33-12.06s-8.52-2.27-12-2.74a79.19,79.19,0,0,0-12.79-.58l.19,1.4c8.06-2.12,16.24-3.78,24.36-5.62,2.64-.6,10.37-1,12-3.62,1.21-2-1.71-7.92-3-9.48-2.23-2.69-5.16-3.34-8.43-2.32-11.2,3.47-16.12,15.27-26.22,20.1l.86,1.11c5.28-5.31,10.26-11.47,11.16-19.17.32-2.71.23-12.22-4.53-11.85-3,.25-7.56,5.55-8.72,8.06-1.43,3.11-1,7.12-.85,10.41.26,4.62.29,9.25.59,13.87.06.91,1.48.91,1.42,0Z"/><path class="cls-1" d="M244.43,862a50.55,50.55,0,0,1-3.76-11.94c-.27-1.55-2.4-14.65,2.67-11.47,2.5,1.57,1.79,7.2,1.8,9.49,0,3.93-.08,7.86-.22,11.78l1.39-.18c-2.43-7.08.62-13.6,4.38-19.56,2.27-3.59,7.19-11.32,11.56-6.43,2.4,2.7,2.61,5,2.61,8.5,0,4.21.63,9.56-3.38,12.21-4.54,3-10.7,6.07-16.15,6.29v1.42c4-.31,8-.59,12.06-.75,3.32-.13,6.6.2,8.6,3.33,1.36,2.12,2.31,5,.23,6.86-7.66,7-17.64-1.77-21-8.69-.4-.82-1.6-.1-1.23.72.91,2,1.84,3.93,2.71,5.92.52,1.18,4.23,8.6-1.13,8-.81-.09-2.42-2.18-2.92-2.74-2.5-2.79-5-7.06.27-9.78.81-.41.1-1.63-.71-1.22a6.28,6.28,0,0,0-3.32,8c.76,2,3.88,6.53,6.13,7.08s4.32-1.5,4.7-3.46c.75-3.93-3-9.22-4.5-12.52l-1.23.72c2.53,5.18,7,9.81,12.68,11.4,3.63,1,9.78-.1,11.87-3.61,1.65-2.77-1-7.79-3.19-9.57s-5.16-2-7.95-1.86c-4,.16-8.07.44-12.06.75-.9.07-.93,1.46,0,1.42a25.8,25.8,0,0,0,11.55-3.72c2.77-1.56,6-2.58,7.87-5.28,2.44-3.56,1.54-8.78,1.54-12.85a10.05,10.05,0,0,0-3-7.57c-1.33-1.48-1.87-2.22-3.69-2.21-3.18,0-5.92,2.95-7.65,5.26-5.15,6.9-10,15.57-7,24.31a.72.72,0,0,0,1.4-.19c.21-5.77,1.61-13.64-.26-19.17-.55-1.61-2.28-5.13-4.43-5-8.14.53.13,23.84,1.56,27,.37.83,1.59.11,1.22-.72Z"/><path class="cls-1" d="M309,825.54c7.08,1.81,13.89-1.74,19.44-5.93,3.13-2.37,7-7.63,2.82-11.06s-11.57-.62-15.17,2.18c-4.61,3.6-5.73,9.21-6.52,14.69-.13.9,1.24,1.28,1.37.38,1.09-7.54,3.42-14.74,11.81-16.79a13,13,0,0,1,4.07-.37q7.55,3.57,2.8,8.12a23.21,23.21,0,0,1-5.5,4c-4.54,2.78-9.39,4.73-14.74,3.36a.71.71,0,0,0-.38,1.37Z"/><path class="cls-1" d="M309,826.33c2.14-4.65,4.69-10.93,3.95-16.18-.38-2.67-3.15-5.25-5.66-3s-1.63,7.25-1.56,10.1c.05,1.8-.51,6.59,1.26,7.85l.17-1.29a12,12,0,0,1-6.55-.75c-1.64-.68-5-2.57-5.51-4.51-1-4.32,4.48-3.94,7.09-2.6,3,1.54,3.37,4.77,3.42,7.8a.71.71,0,0,0,1.42,0c-.08-4.2-.85-7.87-5.18-9.48-2.19-.81-7.42-1.46-8.85,1.11s2.37,6.07,4.13,7.36a13.65,13.65,0,0,0,10.41,2.43c.66-.1.6-1,.16-1.29-.74-.53-.47-4.26-.51-5.26-.07-2-.15-3.93-.08-5.89,0-1-.08-3.1.72-4,2.95.45,4.16,1.71,3.65,3.81-.13,1.2-.31,2.39-.55,3.58a42.52,42.52,0,0,1-3.16,9.45c-.38.83.84,1.55,1.23.72Z"/><path class="cls-1" d="M308.18,828.88a95,95,0,0,0,7.91,6.68c2.19,1.64,5.93,5.22,8.66,5.69,2.05.35,6.14-1.14,6.89-3.26.56-1.57-1-5.49-2.48-6.38-1.86-1.13-6.57-1.1-8.82-1.57-3-.61-5.92-1.22-8.93-1.55v1.42c5.13,0,10.27,2,15.36.79,1.57-.38,6.76-1.57,6.74-4,0-1.92-4.05-2.8-5.37-3.08a25.32,25.32,0,0,0-17.8,3.08c-.77.48-.06,1.7.72,1.22a22.82,22.82,0,0,1,12.53-3.22c2.33,0,10.86.88,5.71,3.65-5.53,3-12.07.09-17.89.1-.93,0-.88,1.32,0,1.42,4.1.45,8.09,1.46,12.13,2.23,2.74.52,6.35.28,6.46,4.05.15,5.09-6.23,2.93-9,1.08a89.69,89.69,0,0,1-11.79-9.4c-.66-.62-1.67.38-1,1Z"/><path class="cls-2" d="M131.76,353.14a317.37,317.37,0,0,1,9.46-33.77c2.85-8.07,6.23-16,7.36-24.75a5.93,5.93,0,0,0-.33-3.57,2.88,2.88,0,0,0-2.38-1.29c-5.19-.53-10.3,3.46-13.4,9.05s-4.42,12.54-4.86,19.38c-.72,11.23.61,24.79,4.15,34.95"/><path class="cls-2" d="M1.9,597.07a95.21,95.21,0,0,0,30.28-37.66c6.06-13.56,10.71-27,19-39.52,5.81-8.77,12.74-15.71,20-23.21,6.79-7,10.94-15.91,15.52-24.42,9.42-17.54,19.12-35,26.88-53.34,9.29-22,14.29-45.1,19.6-68.28.4-1.77-2.33-2.53-2.74-.75-4.54,19.82-8.64,39.81-15.83,58.88-7.13,18.91-16.76,36.73-26.3,54.5-4.69,8.72-8.86,18.15-14.68,26.19C68.14,497,60.42,502.63,54.71,510,45.42,522.09,39,535,33.44,549c-7.26,18.33-17,33.54-33,45.58-1.44,1.09,0,3.55,1.43,2.45Z"/><path class="cls-2" d="M129.24,368c6.93-4.72,14-9.48,21.54-11.82A34.51,34.51,0,0,0,157,354c5-2.66,8.75-9.27,9.2-16.35a3.93,3.93,0,0,0-.19-1.82,2.32,2.32,0,0,0-2-1.17c-3.9-.55-8-1.06-11.64,1a24.51,24.51,0,0,0-5.44,4.82c-6.48,7-13.25,14.46-16.14,24.76a7.7,7.7,0,0,1-1.28,3,3.44,3.44,0,0,1-2.31,1c-5.05.55-10-2.8-13.22-7.9s-5-20.11-4.68-20.79a2.73,2.73,0,0,1,1.12-1.09c4.49-2.64,9.93,1,12.28,6.62s5.2,16.79,4.5,23.16"/><path class="cls-2" d="M109.34,426.66a199.69,199.69,0,0,0,40.74-22c3.06-2.12,6.44-5,6.84-9.51a9.32,9.32,0,0,0-4.77-9c-2.82-1.35-6-.83-8.9.2-7.32,2.59-14,8.34-18.76,16.14-3.14,5.15-5.51,11.22-9.37,15.45-2.31,2.53-5.13,4.39-6.78,7.69-.86-4.13.93-8.36,2.13-12.38,2.16-7.2,2.51-15.45.31-22.54s-7.12-12.76-12.89-13.9a2.8,2.8,0,0,0-3,.79,5.84,5.84,0,0,0-.83,2.31c-.94,4.61-1.71,10.22.87,13.5,1,1.33,2.49,2,3.47,3.43a13.69,13.69,0,0,1,1.7,4.8c2.23,10,4.27,19.17,6.5,29.2"/><path class="cls-2" d="M30.17,556.42c-.24-4.66-8.25-29.34-8.79-42.87-.34-8.53-.67-17.2.87-25.54.59-3.17,1.85-6.75,4.28-7.4,1.32-.35,8.08,12.76,7.88,19.32C33.9,516.2,33,535,31,551.07"/><path class="cls-2" d="M84.22,472.2c1.51-6.22,1.71-18.95.53-25.23-.62-3.27-2.45-9.22-4.56-11.11s-4.71.95-6.13,3.79c-.44.88-2.73,13.45-2.18,18.7.4,3.92,1.54,7.65,1.92,11.57.8,8.18-1.73,16.29-4.2,23.94"/><path class="cls-2" d="M83.32,475.51c2.55-2.23,16.72-10.15,18.9-10.82,4.61-1.43,8.66-4.32,13.27-5.74,6.22-1.93,13.28-2.39,19.45-.43a6.48,6.48,0,0,1,3.48,2.27,5.08,5.08,0,0,1,.59,4.78,5.2,5.2,0,0,1-1.92,2c-18.37,12.45-41.44,6.35-59.7,19.09"/><path class="cls-2" d="M38.53,537.51a44.88,44.88,0,0,1,22.63-14c8.73-2.35,28.48-2,29.37-1.59,5.18,2.69,3.14,9.67-.23,12-2.5,1.73-5.45,1.65-8.25,1.74-17.23.5-33.86,8.46-50.11,16.32"/><path class="cls-1" d="M1280.84,268.65A334.29,334.29,0,0,0,1239,334.24a138.2,138.2,0,0,0-11.44,34.31c-2.65,13.72-10.34,25.17-17.17,37.13-13.08,22.91-26.3,45.77-45,64.64-17.61,17.78-38.12,32.55-54.34,51.72-4.25,5-8.17,10.37-13.13,14.71-2.13,1.86-5,5.22-8.29,2.1-1.44-1.38-1.92-5.46-2-7.15A20.74,20.74,0,0,1,1091,520c8.36-13.42,27.49-18.92,42.32-19.25a.71.71,0,0,0,0-1.42c-12.67.28-25.65,4-35.81,11.78-8,6.11-14.48,17-9.81,27.09,5.08,11,17.58-6.89,21.21-11.3a265.87,265.87,0,0,1,28.81-29.32c10.74-9.57,21.77-18.86,31.69-29.3a212.59,212.59,0,0,0,24.86-32.49c7.79-12.25,14.84-25,22-37.57,3.4-6,7.19-11.87,9.7-18.29,2.76-7.07,3.31-14.73,5.27-22,4.27-15.93,12.56-31,20.81-45.23a335.43,335.43,0,0,1,29.76-43c.57-.71-.43-1.71-1-1Z"/><path class="cls-1" d="M1150.33,487.13c-.29,8.87-.57,17.84,1.08,26.61.82,4.42,2.42,8.77,1.57,13.32a18.06,18.06,0,0,1-2.53,6.33c-1.59,2.51-5.18,6.72-8.53,4.52-1.2-.79-2.16-3.55-2.83-4.87a19.86,19.86,0,0,1-2.4-7.94c-.17-4.6,1.56-9.53,2.79-13.92a68.21,68.21,0,0,1,4.33-11.92c2-4,5.46-6.81,7.65-10.53,2.34-4-1.93-9.22-4.81-11.75a19.94,19.94,0,0,0-14.32-5.09c-4.3.22-10.55.7-14.34,2.87-2.56,1.46-1.84,4.52-.64,7,5.53,11.36,25.25,8.37,34,3.2a.71.71,0,0,0-.72-1.23c-5.45,3.22-12.59,4-18.82,4.07-4,0-8-.82-11-3.69-2.57-2.46-4.74-6.86-.88-8.5a34.7,34.7,0,0,1,15.56-2.28,19.24,19.24,0,0,1,10.62,5.15,13.82,13.82,0,0,1,3.35,4.3c1.51,3.54,0,5.85-2.1,8.34-3.88,4.58-6.31,10.14-8.14,15.81-1.92,6-4.72,13.39-3.84,19.76a22.58,22.58,0,0,0,2.44,7.07c1,1.94,2.39,5.69,4.54,6.59,3.31,1.39,7.18-3.24,8.86-5.65,3.69-5.32,3.8-11.1,2.41-17.19-2.29-10.09-2.27-20.09-1.93-30.37,0-.91-1.39-.91-1.42,0Z"/><path class="cls-1" d="M1189.31,442.57a275.6,275.6,0,0,1,3.19,35.95c.12,5.72.14,11.48-.18,17.19-.13,2.42-.26,5-1.35,7.22-2.36,4.74-8.08,5.41-12,1.76-4.34-4.09-5-11.47-5-17.07a42.65,42.65,0,0,1,3.64-17.32c2.13-4.82,5.28-9.11,7.37-13.94,2-4.63,1.93-9.85,4.27-14.33a.72.72,0,0,0-.8-1c-6.92,1.78-10.62,9.47-16.73,12.9-8.32,4.67-19.21,4.76-26.53-1.95-3.47-3.18-3.87-6.71.38-9.55,3.61-2.41,6.64-3,10.79-1a11.56,11.56,0,0,0,7.69,1.3c9.44-1.2,18.85-2.86,28.26-4.29.9-.14.52-1.5-.37-1.37l-20.52,3.12c-4,.61-9.3,2.26-13.19.7-1.85-.75-3.18-2.13-5.23-2.4-5.83-.79-15.79,5.38-11.28,11.68,4.7,6.57,13.41,9.4,21.21,8.25a28.7,28.7,0,0,0,13.34-5.87c4.21-3.27,7.16-8.8,12.56-10.19l-.8-1c-1.53,2.93-1.91,5.89-2.62,9.08a37.79,37.79,0,0,1-4.3,10.41c-3.3,5.84-6.38,11.39-7.7,18.05-1.72,8.73-2.12,25.47,8.45,29.2,11.44,4.05,11.91-11,12.06-18.08a277,277,0,0,0-3.24-47.79c-.14-.89-1.51-.51-1.37.38Z"/><path class="cls-1" d="M1256.53,302.39c-4,1.39-8.51,1.75-12.69,2.46-6.53,1.11-13.09,2.24-19.51,3.89a99.87,99.87,0,0,0-18.92,7.23c-4.58,2.25-14.07,6.57-14.54,12.77-.48,6.52,16.3,5.09,19.87,4,7-2,14-7.07,20.43-10.63,7.72-4.31,15.33-8.84,22.7-13.75.75-.5,0-1.73-.72-1.22a397.26,397.26,0,0,1-36.8,21.34c-5.33,2.78-9.71,3.93-15.74,3.39-2-.17-4.91-.16-6.7-1.14-4.53-2.5,2.22-7.56,4.85-9.37,9.91-6.86,22-10.68,33.73-13,8-1.61,16.75-1.94,24.42-4.59.86-.3.49-1.67-.38-1.37Z"/><path class="cls-1" d="M1214.63,396.52a47.55,47.55,0,0,1-20.7,10.25c-4.17.81-15.91,1.09-11.62-6.79,1.2-2.21,3.58-3.62,5.57-5.06a43.86,43.86,0,0,1,7.66-4.75c4.36-1.94,9.33-1.8,13.78-3.53,6.88-2.66,12-8.29,16.85-13.63.61-.68-.39-1.68-1-1-4.05,4.48-8.25,9.14-13.64,12.06s-11.35,2.43-16.7,4.88c-4.86,2.22-12.87,6.58-14.47,12.2-2.27,8,7.36,8,12.76,7.18,7.9-1.18,16.53-5.61,22.52-10.8.69-.6-.31-1.6-1-1Z"/><path class="cls-1" d="M1216.74,394.75c-.94,8.06-.22,17.15.9,25.16,1.23,8.86,1.63,17.55,5,25.94,1.89,4.74,5.72,14.07,11.22,15.77,11.86,3.66,3.53-24.65,2.28-28.87-4.77-16.11-12.2-31.69-11.72-48.86a.71.71,0,0,0-1.42,0c-.36,13,3.77,25.3,7.93,37.48a182.11,182.11,0,0,1,5.91,19.66,69.39,69.39,0,0,1,1.59,11c.07,1.11.66,4.09.07,4.88l-6.45,1.85a25.2,25.2,0,0,1-2.86-3.56c-7.76-11.17-8.91-24.32-10.39-37.42-.84-7.4-1.49-15.63-.63-23,.11-.9-1.31-.9-1.41,0Z"/><path class="cls-1" d="M1245.37,321.17c-3.86,14.31-1.28,28.67,4.23,42.14,2.13,5.19,4.46,10.3,6.93,15.33,1.17,2.39,2.15,5.33,4.27,7,3.67,2.94,8.14.78,9.75-3.21,2.51-6.21-3-13.93-5-19.42-6.48-17.45-8.25-36.18-10-54.58-.08-.9-1.5-.91-1.42,0,1.25,13.23,2.51,26.52,5.49,39.5a120,120,0,0,0,6.56,20.45c1.33,3.09,3.2,6.2,3.44,9.62s-2.86,10.87-8.06,6.39a5.41,5.41,0,0,1-1.16-1.4c-4.6-6.64-7.65-15.48-10.54-22.94-4.77-12.32-6.57-25.61-3.09-38.53a.71.71,0,0,0-1.37-.37Z"/><line class="cls-3" x1="1124.52" y1="502.7" x2="1124.73" y2="506.13"/><line class="cls-3" x1="1122.56" y1="503.62" x2="1122.84" y2="508.25"/><line class="cls-3" x1="1120.47" y1="503.63" x2="1120.84" y2="509.77"/><line class="cls-3" x1="1118.16" y1="503.95" x2="1118.6" y2="511.24"/><line class="cls-3" x1="1115.61" y1="504.6" x2="1116.18" y2="514"/><line class="cls-3" x1="1113.68" y1="505.91" x2="1114.31" y2="516.33"/><line class="cls-3" x1="1111.6" y1="506.18" x2="1112.29" y2="517.51"/><line class="cls-3" x1="1109.31" y1="506.82" x2="1110.16" y2="520.97"/><line class="cls-3" x1="1107.54" y1="508.2" x2="1108.27" y2="522.57"/><line class="cls-3" x1="1105.58" y1="509.17" x2="1106.37" y2="524.8"/><line class="cls-3" x1="1103.55" y1="510.39" x2="1104.38" y2="526.71"/><line class="cls-3" x1="1101.28" y1="511.63" x2="1102.21" y2="529.82"/><line class="cls-3" x1="1098.77" y1="513.11" x2="1099.75" y2="532.33"/><line class="cls-3" x1="1096.87" y1="515.25" x2="1097.85" y2="534.48"/><line class="cls-3" x1="1094.87" y1="517.1" x2="1095.84" y2="536.16"/><line class="cls-3" x1="1092.69" y1="520.09" x2="1093.5" y2="535.97"/><line class="cls-3" x1="1090.31" y1="525.32" x2="1090.92" y2="535.51"/><line class="cls-3" x1="1148.39" y1="493.4" x2="1150.34" y2="495.55"/><line class="cls-3" x1="1147.79" y1="495.27" x2="1150.43" y2="498.16"/><line class="cls-3" x1="1146.64" y1="496.62" x2="1150.13" y2="500.45"/><line class="cls-3" x1="1145.52" y1="498.31" x2="1149.66" y2="502.86"/><line class="cls-3" x1="1144.46" y1="500.38" x2="1149.8" y2="506.25"/><line class="cls-3" x1="1144.08" y1="502.48" x2="1150" y2="509"/><line class="cls-3" x1="1143.07" y1="504" x2="1149.51" y2="511.07"/><line class="cls-3" x1="1142.14" y1="505.89" x2="1150.18" y2="514.73"/><line class="cls-3" x1="1141.9" y1="507.94" x2="1149.98" y2="517.01"/><line class="cls-3" x1="1141.32" y1="509.85" x2="1150.12" y2="519.71"/><line class="cls-3" x1="1140.85" y1="511.95" x2="1150.03" y2="522.25"/><line class="cls-3" x1="1140.25" y1="514.23" x2="1150.49" y2="525.71"/><line class="cls-3" x1="1139.65" y1="516.82" x2="1150.46" y2="528.95"/><line class="cls-3" x1="1139.73" y1="519.47" x2="1150.55" y2="531.6"/><line class="cls-3" x1="1139.61" y1="521.97" x2="1150.34" y2="534"/><line class="cls-3" x1="1140" y1="525.35" x2="1148.94" y2="535.38"/><line class="cls-3" x1="1141.47" y1="530.35" x2="1147.26" y2="536.72"/><line class="cls-3" x1="1147.79" y1="482.46" x2="1146.58" y2="485.29"/><line class="cls-3" x1="1146.59" y1="481.73" x2="1144.94" y2="485.55"/><line class="cls-3" x1="1145.66" y1="480.2" x2="1143.49" y2="485.26"/><line class="cls-3" x1="1144.53" y1="478.73" x2="1141.94" y2="484.75"/><line class="cls-3" x1="1143.16" y1="477.37" x2="1139.83" y2="485.12"/><line class="cls-3" x1="1141.82" y1="476.96" x2="1138.12" y2="485.56"/><line class="cls-3" x1="1140.81" y1="475.64" x2="1136.79" y2="484.99"/><line class="cls-3" x1="1139.56" y1="474.44" x2="1134.54" y2="486.12"/><line class="cls-3" x1="1138.26" y1="474.22" x2="1133.1" y2="485.98"/><line class="cls-3" x1="1137.02" y1="473.53" x2="1131.42" y2="486.32"/><line class="cls-3" x1="1135.67" y1="472.98" x2="1129.81" y2="486.34"/><line class="cls-3" x1="1134.21" y1="472.27" x2="1127.68" y2="487.16"/><line class="cls-3" x1="1132.54" y1="471.58" x2="1125.64" y2="487.3"/><line class="cls-3" x1="1130.89" y1="471.85" x2="1123.99" y2="487.57"/><line class="cls-3" x1="1129.31" y1="471.81" x2="1122.47" y2="487.41"/><line class="cls-3" x1="1127.22" y1="472.54" x2="1121.52" y2="485.53"/><line class="cls-3" x1="1124.18" y1="474.86" x2="1120.56" y2="483.27"/><line class="cls-3" x1="1190.44" y1="449.11" x2="1192.74" y2="451.98"/><line class="cls-3" x1="1189.45" y1="451.43" x2="1192.56" y2="455.31"/><line class="cls-3" x1="1187.79" y1="453.05" x2="1191.91" y2="458.19"/><line class="cls-3" x1="1186.14" y1="455.12" x2="1191.03" y2="461.22"/><line class="cls-3" x1="1184.52" y1="457.66" x2="1190.82" y2="465.52"/><line class="cls-3" x1="1183.79" y1="460.3" x2="1190.78" y2="469.03"/><line class="cls-3" x1="1182.3" y1="462.14" x2="1189.9" y2="471.62"/><line class="cls-3" x1="1180.87" y1="464.48" x2="1190.36" y2="476.32"/><line class="cls-3" x1="1180.33" y1="467.06" x2="1189.84" y2="479.19"/><line class="cls-3" x1="1179.37" y1="469.43" x2="1189.72" y2="482.63"/><line class="cls-3" x1="1178.5" y1="472.07" x2="1189.32" y2="485.85"/><line class="cls-3" x1="1177.46" y1="474.91" x2="1189.51" y2="490.27"/><line class="cls-3" x1="1176.39" y1="478.16" x2="1189.11" y2="494.38"/><line class="cls-3" x1="1176.2" y1="481.51" x2="1188.93" y2="497.75"/><line class="cls-3" x1="1175.75" y1="484.68" x2="1188.38" y2="500.78"/><line class="cls-3" x1="1175.88" y1="489.01" x2="1186.4" y2="502.42"/><line class="cls-3" x1="1177.23" y1="495.47" x2="1184.06" y2="504"/><line class="cls-3" x1="1184.36" y1="441.99" x2="1179.82" y2="438.35"/><line class="cls-3" x1="1182.94" y1="443.74" x2="1177.56" y2="439.42"/><line class="cls-3" x1="1181.15" y1="445.5" x2="1174.21" y2="439.93"/><line class="cls-3" x1="1179.17" y1="446.4" x2="1171.47" y2="440.22"/><line class="cls-3" x1="1177.91" y1="447.98" x2="1169.54" y2="441.26"/><line class="cls-3" x1="1176.26" y1="449.54" x2="1165.8" y2="441.15"/><line class="cls-3" x1="1174.3" y1="450.26" x2="1163.62" y2="441.85"/><line class="cls-3" x1="1172.56" y1="451.36" x2="1160.94" y2="442.22"/><line class="cls-3" x1="1170.6" y1="452.39" x2="1158.46" y2="442.84"/><line class="cls-3" x1="1168.5" y1="453.6" x2="1154.97" y2="442.97"/><line class="cls-3" x1="1166.09" y1="454.88" x2="1151.8" y2="443.65"/><line class="cls-3" x1="1163.48" y1="455.31" x2="1149.18" y2="444.06"/><line class="cls-3" x1="1161.05" y1="455.97" x2="1146.87" y2="444.82"/><line class="cls-3" x1="1157.65" y1="456.16" x2="1145.84" y2="446.87"/><line class="cls-3" x1="1152.42" y1="455.3" x2="1144.89" y2="449.26"/><line class="cls-3" x1="1219.57" y1="391.53" x2="1222.41" y2="393.7"/><line class="cls-3" x1="1219.77" y1="394.5" x2="1223.62" y2="397.42"/><line class="cls-3" x1="1219.21" y1="396.98" x2="1224.3" y2="400.85"/><line class="cls-3" x1="1218.83" y1="399.94" x2="1224.88" y2="404.53"/><line class="cls-3" x1="1218.67" y1="403.41" x2="1226.46" y2="409.34"/><line class="cls-3" x1="1219.2" y1="406.62" x2="1227.84" y2="413.19"/><line class="cls-3" x1="1218.85" y1="409.27" x2="1228.24" y2="416.41"/><line class="cls-3" x1="1218.74" y1="412.43" x2="1230.47" y2="421.35"/><line class="cls-3" x1="1219.38" y1="415.49" x2="1231.25" y2="424.71"/><line class="cls-3" x1="1219.63" y1="418.5" x2="1232.54" y2="428.53"/><line class="cls-3" x1="1220.06" y1="421.76" x2="1233.55" y2="432.23"/><line class="cls-3" x1="1220.44" y1="425.31" x2="1235.48" y2="436.98"/><line class="cls-3" x1="1220.96" y1="429.32" x2="1236.84" y2="441.65"/><line class="cls-3" x1="1222.18" y1="433.08" x2="1238.06" y2="445.41"/><line class="cls-3" x1="1223.13" y1="436.74" x2="1238.88" y2="448.97"/><line class="cls-3" x1="1224.96" y1="441.42" x2="1238.09" y2="451.61"/><line class="cls-3" x1="1228.55" y1="447.91" x2="1237" y2="454.34"/><line class="cls-3" x1="1247.87" y1="314.06" x2="1251.1" y2="316.88"/><line class="cls-3" x1="1248.02" y1="316.93" x2="1252.38" y2="320.74"/><line class="cls-3" x1="1247.3" y1="319.13" x2="1253.07" y2="324.18"/><line class="cls-3" x1="1246.78" y1="321.84" x2="1253.63" y2="327.83"/><line class="cls-3" x1="1246.48" y1="325.1" x2="1255.32" y2="332.82"/><line class="cls-3" x1="1247" y1="328.28" x2="1256.81" y2="336.85"/><line class="cls-3" x1="1246.52" y1="330.7" x2="1257.18" y2="340.01"/><line class="cls-3" x1="1246.3" y1="333.68" x2="1259.61" y2="345.31"/><line class="cls-3" x1="1246.95" y1="336.76" x2="1260.42" y2="348.71"/><line class="cls-3" x1="1247.16" y1="339.68" x2="1261.8" y2="352.68"/><line class="cls-3" x1="1247.56" y1="342.88" x2="1262.86" y2="356.47"/><line class="cls-3" x1="1247.9" y1="346.36" x2="1264.95" y2="361.5"/><line class="cls-3" x1="1248.38" y1="350.31" x2="1266.39" y2="366.3"/><line class="cls-3" x1="1249.68" y1="354.2" x2="1267.7" y2="370.2"/><line class="cls-3" x1="1250.67" y1="357.93" x2="1268.54" y2="373.8"/><line class="cls-3" x1="1252.66" y1="362.87" x2="1267.54" y2="376.09"/><line class="cls-3" x1="1256.62" y1="370.01" x2="1266.21" y2="378.39"/><line class="cls-3" x1="1221.68" y1="382.15" x2="1218.87" y2="380.69"/><line class="cls-3" x1="1220.14" y1="383.67" x2="1216.35" y2="381.69"/><line class="cls-3" x1="1219.32" y1="385.64" x2="1214.29" y2="383.02"/><line class="cls-3" x1="1218.15" y1="387.7" x2="1212.18" y2="384.6"/><line class="cls-3" x1="1216.6" y1="389.87" x2="1208.91" y2="385.87"/><line class="cls-3" x1="1214.75" y1="391.21" x2="1206.22" y2="386.78"/><line class="cls-3" x1="1213.71" y1="393.07" x2="1204.44" y2="388.25"/><line class="cls-3" x1="1212.28" y1="395" x2="1200.7" y2="388.98"/><line class="cls-3" x1="1210.43" y1="396.16" x2="1198.61" y2="390.18"/><line class="cls-3" x1="1208.84" y1="397.66" x2="1195.99" y2="391.15"/><line class="cls-3" x1="1207.03" y1="399.13" x2="1193.6" y2="392.33"/><line class="cls-3" x1="1205.1" y1="400.81" x2="1190.14" y2="393.24"/><line class="cls-3" x1="1202.87" y1="402.63" x2="1187.07" y2="394.63"/><line class="cls-3" x1="1200.33" y1="403.64" x2="1184.52" y2="395.64"/><line class="cls-3" x1="1197.99" y1="404.85" x2="1182.32" y2="396.91"/><line class="cls-3" x1="1194.62" y1="405.81" x2="1181.56" y2="399.19"/><line class="cls-3" x1="1189.29" y1="406.13" x2="1180.95" y2="401.79"/><line class="cls-3" x1="1249.84" y1="307.58" x2="1246.39" y2="306.04"/><line class="cls-3" x1="1247.63" y1="308.91" x2="1242.97" y2="306.83"/><line class="cls-3" x1="1246.27" y1="310.7" x2="1240.11" y2="307.95"/><line class="cls-3" x1="1244.46" y1="312.57" x2="1237.14" y2="309.31"/><line class="cls-3" x1="1242.14" y1="314.51" x2="1232.7" y2="310.3"/><line class="cls-3" x1="1239.54" y1="315.66" x2="1229.07" y2="310.99"/><line class="cls-3" x1="1237.92" y1="317.34" x2="1226.54" y2="312.27"/><line class="cls-3" x1="1235.78" y1="319.06" x2="1221.57" y2="312.72"/><line class="cls-3" x1="1233.21" y1="320.03" x2="1218.69" y2="313.72"/><line class="cls-3" x1="1230.93" y1="321.34" x2="1215.14" y2="314.47"/><line class="cls-3" x1="1228.36" y1="322.61" x2="1211.87" y2="315.44"/><line class="cls-3" x1="1225.62" y1="324.07" x2="1207.23" y2="316.08"/><line class="cls-3" x1="1222.46" y1="325.65" x2="1203.04" y2="317.21"/><line class="cls-3" x1="1219" y1="326.44" x2="1199.57" y2="318"/><line class="cls-3" x1="1215.8" y1="327.43" x2="1196.53" y2="319.06"/><line class="cls-3" x1="1211.28" y1="328.13" x2="1195.23" y2="321.15"/><line class="cls-3" x1="1204.29" y1="328.12" x2="1194.05" y2="323.55"/><path class="cls-4" d="M353.44,1025.28c13.77-13.79,31.52-24,45.29-37.8,4.65-4.66,9.39-9.39,15.44-12.73,10.25-5.67,23.09-6.77,35.36-7,7-.16,14.16-.08,20.93,1.51,6,1.42,11.58,4,17.34,6.07,22.93,8.28,47.79,22.21,72.76,22.32,13.58.06,89.87-37.68,116-44.34C701.44,947,730,950,750.74,963.14,775.8,979,794.17,1000,803,1025.28"/><path class="cls-1" d="M366.47,1026.9c18.34-20.76,35-44,60.79-56.13,17.56-8.26,35.6-6.72,54.07-2.41,18.13,4.22,35.33,11.36,52.44,18.56,11.72,4.94,24.39,11.27,37.33,11.88,15.68.75,31.43-5.79,44.91-13.17,14.7-8,28-18.26,42.14-27.17,5.6-3.53,11.43-7,17.76-9.06a83.29,83.29,0,0,1,62.23,5.9c9.43,5.11,17.78,12.54,25.49,19.93a106.76,106.76,0,0,1,29.66,50.52.71.71,0,0,0,1.37-.37c-4.46-16.52-11.86-31.57-23.37-44.32-12-13.35-26.84-26.14-44-32.06-16.66-5.73-36.78-6.55-53.46-.35-13.84,5.14-25.9,15-38,23.12-15.08,10.1-31.08,20-49,24-7.84,1.74-15.65,2.28-23.49.45a136.06,136.06,0,0,1-20.09-6.89c-17.25-7-34.19-14.74-52.13-19.89-16.84-4.83-35.79-8.95-53.09-4.16-31.84,8.82-51.74,37.17-72.47,60.63-.6.68.4,1.69,1,1Z"/><path class="cls-4" d="M621.17,1.16c19.61,18.9,44.37,45.55,64,64.45C691.77,72,698.52,78.46,707,82.82c14.29,7.38,31.79,7.9,48.47,7.26,9.55-.37,19.23-1.08,28.31-4,8.1-2.57,15.45-6.78,23.14-10.28,30.57-14,63.4-36.29,97.28-38.54,18.44-1.22,124.49,47.26,160.42,54.73,34.17,7.11,72.77.28,100-20.54,33-25.19,43.45-31.93,66.85-70.33"/><path class="cls-1" d="M658.1,3.12c13.15,34,35.64,71.74,70.32,87.09,22,9.72,45.09,5.58,67.35-1.07,24.51-7.32,47.4-18.84,70-30.67,9.44-4.95,18.85-10,28.58-14.36,8-3.59,16.51-7,25.31-7.8,25-2.11,49.71,9.23,70.81,21.31,19.91,11.39,38.27,25.59,58.75,36,19.94,10.1,43.43,11.3,65,6.44A104.41,104.41,0,0,0,1150.4,84.4c10-6.87,18.64-15.8,27.22-24.36C1189.7,48,1198,34.89,1205.22,19.47c2.8-6,5.51-11.95,8.24-17.95.37-.82-.85-1.54-1.23-.71-7.73,17-14.77,35.06-27.19,49.32-15.26,17.52-33.19,34.74-55,43.52-22.45,9-50.85,11.3-73.55,1.78-19.82-8.32-37.29-22-55.52-33.21-19.77-12.12-41.14-23.46-64.41-26.64-8.66-1.19-17.38-1.31-25.86.94-8.25,2.2-16.13,5.78-23.79,9.5-21,10.18-41.17,21.92-62.63,31.15A252.77,252.77,0,0,1,786.21,90.3C773.9,93.39,761,96,748.3,94.36c-41.17-5.18-68.65-46-84.33-80.84q-2.4-5.32-4.51-10.78c-.32-.84-1.69-.47-1.36.38Z"/><path class="cls-5" d="M432,30.27c1.75,19-8.33,35.07-23.11,46.08s-33.93,13.7-52.13,13c-23.88-.89-49-6.76-70.86,3.23-12,5.48-21.63,15.24-32.89,22.18-28,17.27-63.52,15.56-95,6.86-10.08-2.78-20.26-6.25-30.67-5.56-22.66,1.49-39.39,21.49-54,39.46s-33.2,37-55.85,35.33C1.06,189.69,0,173.1,0,158.08V0C31.68,0,354.42.53,379.68,0,414.6-.7,426.07,5,432,30.27"/><path class="cls-5" d="M1245.36,722.35c-24.25-.94-44.73,6.4-58.67,17s-17.23,24.1-16.21,36.9c1.34,16.81,9.06,34.41-3.52,49.95-6.9,8.53-19.29,15.47-28.06,23.5-21.83,20-19.34,45-8,67,3.63,7.06,8.15,14.17,7.36,21.52-1.72,16-27.13,28.06-50,38.62s-44.82,32.06-44.82,48.15h38.79c36.88,0,162.46-.06,197.69-.06,0-32.29,0-266.06,0-293.35-9.68-4.47-21.92-7.77-34.61-9.24"/><path class="cls-1" d="M413.6-.51a64.19,64.19,0,0,1-15.36,48.92C386.57,62,370.4,68.61,352.77,69.92c-17.22,1.28-34.44-2.28-51.66-.75-16.47,1.47-28.88,8.78-40.56,20.1-6.47,6.27-12.66,12.87-20.12,18A77.18,77.18,0,0,1,217.16,118c-16.53,4.53-34.11,3.88-50.79.49-16.14-3.28-33.13-12.3-49.69-6.57-12.92,4.47-22.49,15.5-30.3,26.23-19,26.1-44.47,83.83-85.07,55.23-.74-.53-1.45.7-.71,1.23,13,9.16,27.9,10.63,41.54,1.94C55.4,188.14,64.82,174.27,73,161.2c9.16-14.56,18.12-30.41,31.94-41.11,7.15-5.53,15.47-8.93,24.63-8.61,10.36.37,20.23,4.59,30.19,7,32.27,7.9,66.44,5,91.64-18.39,7-6.48,13.32-13.75,21.05-19.38,8.21-6,17.77-9.07,27.81-10.07,17.74-1.77,35.49,2.08,53.23.61,18-1.49,34.4-8.44,46.19-22.43A65.42,65.42,0,0,0,415-.51c-.1-.9-1.51-.91-1.42,0Z"/><path class="cls-1" d="M1039.68,1024.84c-1.68-17.51,19-29.33,31.92-36.71,14.88-8.52,31-15.28,44.34-26.21,5-4,9.73-8.86,12.34-14.81,3.12-7.1,1.76-14.32-1.14-21.27-6.64-16-13.89-30.87-12.05-48.73A52.45,52.45,0,0,1,1124.6,852c5.58-7.84,13.2-13.68,20.44-19.87,6.17-5.29,12.27-11,15.69-18.48,3.31-7.29,3.75-15.34,3.09-23.21-1.48-17.48-7-35,1.68-51.56,8.19-15.54,26.16-25,42.72-28.81,10.45-2.4,22.68-3.46,33.33-.86,16.26,4,28.89,15.81,37.81,29.53.49.76,1.72.06,1.22-.71-11.31-17.41-28.55-31.22-50-31.46-31.56-.36-70.07,15.62-71.5,51.85-.75,19.11,9.2,39.57-1.15,57.54-4.83,8.39-13,14.34-20.25,20.5-6.88,5.85-13.26,12.14-17.66,20.11-7.67,13.88-8.11,30.07-4,45.13,2.48,9.21,7.06,17.31,10.45,26.15,3.87,10.08,2.18,18.82-4.88,26.81-13.82,15.64-35.28,23.15-52.86,33.5-12.74,7.49-32.09,19.37-30.43,36.66.08.9,1.5.91,1.41,0Z"/></svg>