<svg xmlns="http://www.w3.org/2000/svg" viewBox="0 0 612 792"><defs><style>.cls-1{fill:none;stroke:#040006;stroke-miterlimit:10;stroke-width:14.17px;}.cls-2{fill:#bf2e7d;}</style></defs><title>Air</title><g id="air"><path class="cls-1" d="M316.26,706.37c-53.17.34-193.5-6-193.5-6a37.71,37.71,0,0,1-37.61-37.6S47.5,567,42.46,441.76c-3.13-77.7,60.35-310.24,60.35-310.24,7.41-19.9,16.14-29,37.6-34.85,0,0,124.88-22.49,170.37-23.47"/><path class="cls-1" d="M295.74,706.37c53.17.34,193.5-6,193.5-6a37.71,37.71,0,0,0,37.61-37.6s37.65-95.85,42.69-221c3.13-77.7-60.35-310.24-60.35-310.24-7.41-19.9-16.14-29-37.6-34.85,0,0-123.31-23.47-168.81-23.47"/><path class="cls-1" d="M108.47,119.07s68.25,89.26,92.25,212.17c18.8,27.82,31.33,63.29,103,63.29"/><path class="cls-1" d="M499,119.07s-68.25,89.26-92.25,212.17c-18.8,27.82-31.33,63.29-103,63.29"/><path class="cls-1" d="M279.21,414.7h56.71a12,12,0,0,1,12,12V649a40.36,40.36,0,0,1-40.36,40.36h0A40.36,40.36,0,0,1,267.21,649V426.7A12,12,0,0,1,279.21,414.7Z"/><path class="cls-1" d="M350.24,456.31c107.28-2.79,219.3-14.55,219.3-14.55"/><path class="cls-1" d="M42.46,441.76s115,11.82,223.15,14.57"/><path class="cls-1" d="M139.42,706.65v.15a12,12,0,0,0,12,12h36.84a12,12,0,0,0,12-12v-.15"/><path class="cls-1" d="M406.28,706.65v.15a12,12,0,0,0,12,12h36.84a12,12,0,0,0,12-12v-.15"/><path class="cls-2" d="M396.76,239.32a22.12,22.12,0,0,1,.21,7,28.31,28.31,0,0,1-2,7,41.3,41.3,0,0,1-8.36,11.9c-6.88,6.9-15.27,11.87-23.93,15.72-17.46,7.56-36.37,10.71-55.09,10.76s-37.63-3.18-55.1-10.74c-8.66-3.85-17.05-8.82-23.93-15.72a41.07,41.07,0,0,1-8.36-11.92,28.19,28.19,0,0,1-2-7,22.42,22.42,0,0,1,.22-7,27.48,27.48,0,0,0,2.24,6.24,29.73,29.73,0,0,0,3.6,5.23,42.72,42.72,0,0,0,9.6,7.92,92.28,92.28,0,0,0,23.2,9.63c16.34,4.5,33.47,6.26,50.55,6.3s34.22-1.78,50.56-6.28a91.28,91.28,0,0,0,23.21-9.64,42.4,42.4,0,0,0,9.59-7.93,29.08,29.08,0,0,0,3.59-5.22A27.73,27.73,0,0,0,396.76,239.32Z"/><path class="cls-2" d="M270.91,111a45.14,45.14,0,0,1,7.06,6.41,57.4,57.4,0,0,1,5.89,7.68,49.37,49.37,0,0,1,4.45,9,36.71,36.71,0,0,1,2.17,10.56,42.47,42.47,0,0,1-1,10.78,51.72,51.72,0,0,1-3.34,9.95,63,63,0,0,1-4.94,9c-.94,1.44-1.95,2.81-3.06,4.23-.28.36-.59.73-.95,1.15l-.6.7-1.25,1.56a80.42,80.42,0,0,0-8.7,13.39,32.86,32.86,0,0,0-2.53,6.58,23.86,23.86,0,0,0-.49,2.86,15.43,15.43,0,0,0,.23,3.18,46.23,46.23,0,0,0,2.12,7.63c1,2.65,2.1,5.35,3.31,8.05,2.42,5.45,5.16,10.9,7.84,16.65a62.17,62.17,0,0,1-7.74-5.49,81.64,81.64,0,0,1-7-6.44,67.77,67.77,0,0,1-6.24-7.45A42.87,42.87,0,0,1,251,212a27.23,27.23,0,0,1-1.62-5.72,20.29,20.29,0,0,1-.26-3.21c0-1,0-2.06.07-3l.34-2.9c.18-.92.39-1.84.59-2.76s.49-1.76.74-2.65.56-1.72.88-2.54A67.27,67.27,0,0,1,262,171.52c.53-.66,1.05-1.31,1.62-2l1.4-1.62c.8-.94,1.61-2,2.39-3.07a68.09,68.09,0,0,0,4.32-6.65,44.81,44.81,0,0,0,5.43-14.1,34.6,34.6,0,0,0,.32-7.51,64.43,64.43,0,0,0-1.26-8.26A144.88,144.88,0,0,0,270.91,111Z"/><path class="cls-2" d="M308.34,111a45.59,45.59,0,0,1,7.06,6.41,57.4,57.4,0,0,1,5.89,7.68,50,50,0,0,1,4.45,9,36.71,36.71,0,0,1,2.17,10.56,42.93,42.93,0,0,1-1,10.78,51.72,51.72,0,0,1-3.34,9.95,63,63,0,0,1-4.94,9c-.94,1.44-1.95,2.81-3.06,4.23-.28.36-.59.73-1,1.15l-.59.7-1.26,1.56a81,81,0,0,0-8.69,13.39,31.69,31.69,0,0,0-2.53,6.58,23.86,23.86,0,0,0-.49,2.86,15.36,15.36,0,0,0,.22,3.18,46.31,46.31,0,0,0,2.13,7.63c1,2.65,2.1,5.35,3.31,8.05,2.42,5.45,5.16,10.9,7.83,16.65a62.81,62.81,0,0,1-7.73-5.49,81.64,81.64,0,0,1-7-6.44,67.77,67.77,0,0,1-6.24-7.45,42.44,42.44,0,0,1-5.11-9.06,27.84,27.84,0,0,1-1.63-5.72,21.48,21.48,0,0,1-.25-3.21,30.16,30.16,0,0,1,.07-3l.34-2.9c.18-.92.38-1.84.59-2.76s.48-1.76.74-2.65.56-1.72.88-2.54a67.27,67.27,0,0,1,10.22-17.63c.53-.66,1.05-1.31,1.62-2l1.4-1.62c.8-.94,1.61-2,2.39-3.07a68.09,68.09,0,0,0,4.32-6.65,44.81,44.81,0,0,0,5.43-14.1,34.6,34.6,0,0,0,.32-7.51,62.79,62.79,0,0,0-1.27-8.26A143,143,0,0,0,308.34,111Z"/><path class="cls-2" d="M345.77,111a45.07,45.07,0,0,1,7.05,6.41,57.4,57.4,0,0,1,5.89,7.68,49.41,49.41,0,0,1,4.46,9,36.37,36.37,0,0,1,2.16,10.56,42,42,0,0,1-1,10.78,51,51,0,0,1-3.33,9.95,63.08,63.08,0,0,1-4.95,9c-.93,1.44-1.94,2.81-3.06,4.23-.27.36-.58.73-.95,1.15l-.59.7-1.26,1.56a79.72,79.72,0,0,0-8.69,13.39A31.69,31.69,0,0,0,339,202a23.86,23.86,0,0,0-.49,2.86,15.36,15.36,0,0,0,.22,3.18,46.31,46.31,0,0,0,2.13,7.63c1,2.65,2.09,5.35,3.31,8.05,2.41,5.45,5.16,10.9,7.83,16.65a61.33,61.33,0,0,1-7.73-5.49,80.17,80.17,0,0,1-7-6.44A67.77,67.77,0,0,1,331,221a42.44,42.44,0,0,1-5.11-9.06,26.64,26.64,0,0,1-1.63-5.72A20.23,20.23,0,0,1,324,203a27.45,27.45,0,0,1,.07-3l.34-2.9c.18-.92.38-1.84.58-2.76s.49-1.76.75-2.65.56-1.72.88-2.54a67.25,67.25,0,0,1,10.21-17.63c.53-.66,1.06-1.31,1.62-2l1.41-1.62c.79-.94,1.61-2,2.38-3.07a70.09,70.09,0,0,0,4.33-6.65,44.78,44.78,0,0,0,5.42-14.1,34,34,0,0,0,.32-7.51,62.72,62.72,0,0,0-1.26-8.26A143,143,0,0,0,345.77,111Z"/></g></svg>