<svg xmlns="http://www.w3.org/2000/svg" viewBox="0 0 612 792"><defs><style>.cls-1,.cls-2{fill:none;stroke:#040006;stroke-miterlimit:10;}.cls-1{stroke-width:14.17px;}.cls-2{stroke-width:8.5px;}.cls-3{fill:#bf2e7d;}</style></defs><title>Micro</title><g id="micro"><rect class="cls-1" x="52.39" y="189.26" width="507.21" height="413.48" rx="38.89"/><rect class="cls-2" x="81.48" y="239.07" width="325.85" height="318.5" rx="38.89"/><line class="cls-1" x1="433.03" y1="189.26" x2="433.03" y2="602.74"/><rect class="cls-2" x="456.73" y="245.26" width="78.42" height="57.1" rx="12"/><rect class="cls-2" x="456.73" y="328.5" width="78.42" height="123.13" rx="12"/><circle class="cls-2" cx="495.94" cy="514.92" r="30.27"/><line class="cls-2" x1="495.94" y1="328.5" x2="495.94" y2="451.63"/><line class="cls-2" x1="456.73" y1="356.6" x2="535.15" y2="356.6"/><line class="cls-2" x1="456.73" y1="391.15" x2="535.15" y2="391.15"/><line class="cls-2" x1="456.73" y1="425.69" x2="535.15" y2="425.69"/><path class="cls-3" d="M363.07,450a31.51,31.51,0,0,1-.13,9.19,37.21,37.21,0,0,1-2.95,9,54.39,54.39,0,0,1-11.33,15.18,87.73,87.73,0,0,1-15,11.41c-2.66,1.66-5.41,3.16-8.2,4.57s-5.61,2.73-8.49,3.93L312.62,505l-4.38,1.61c-2.94,1-5.9,1.95-8.88,2.79a184.66,184.66,0,0,1-18.1,4.2c-6.08,1.09-12.22,1.83-18.37,2.43s-12.32.72-18.49.79-12.33-.3-18.48-.78-12.29-1.34-18.38-2.42-12.14-2.47-18.09-4.2c-3-.84-5.95-1.79-8.89-2.78L176.18,505l-4.33-1.74c-2.88-1.2-5.71-2.52-8.49-3.93s-5.54-2.9-8.21-4.57a88.52,88.52,0,0,1-15-11.41,54.64,54.64,0,0,1-11.32-15.2,37.07,37.07,0,0,1-3-9,31.16,31.16,0,0,1-.12-9.19,34.86,34.86,0,0,0,2.58,8.43,38.66,38.66,0,0,0,4.53,7.24,47.38,47.38,0,0,0,5.86,6.07,62.77,62.77,0,0,0,6.7,5.12c9.43,6.22,20.08,10.53,31,13.82,21.92,6.5,45,9.06,68,9.12s46.09-2.6,68-9.09c10.91-3.3,21.56-7.61,31-13.83a64.21,64.21,0,0,0,6.7-5.13A46.79,46.79,0,0,0,356,465.7a38.59,38.59,0,0,0,4.53-7.23A35.51,35.51,0,0,0,363.07,450Z"/><path class="cls-3" d="M195.63,279.3a66.26,66.26,0,0,1,8.72,8.92,81.69,81.69,0,0,1,7.24,10.37,67.3,67.3,0,0,1,5.4,11.87c.32,1.07.66,2.14,1,3.23s.48,2.23.72,3.35l.33,1.69c.09.58.13,1.17.19,1.75.11,1.17.26,2.36.27,3.53a60.86,60.86,0,0,1-6,26.47A86.48,86.48,0,0,1,207,362.09c-1.22,1.86-2.53,3.63-4,5.44-.36.45-.75.92-1.2,1.44l-.83,1c-.58.69-1.16,1.42-1.74,2.15-2.3,2.92-4.48,6-6.49,9.07a74.27,74.27,0,0,0-5.33,9.44,42.42,42.42,0,0,0-3.38,9.46,7,7,0,0,0-.2,1.14l-.16,1.13a14.54,14.54,0,0,0-.17,2.09,22.11,22.11,0,0,0,.53,4.65,48.94,48.94,0,0,0,1.38,5.12c.57,1.75,1.24,3.5,1.95,5.27,1.44,3.53,3.11,7.08,4.88,10.62,3.56,7.09,7.55,14.13,11.57,21.36a91.89,91.89,0,0,1-9.68-7.79,120.51,120.51,0,0,1-8.79-8.86,95.65,95.65,0,0,1-7.81-10,58.46,58.46,0,0,1-6.3-11.82,36.84,36.84,0,0,1-1.94-7.19,23.54,23.54,0,0,1-.25-4l0-1.89a14.17,14.17,0,0,1,.1-1.87l.46-3.65c.23-1.16.52-2.32.79-3.48s.66-2.24,1-3.36.73-2.19,1.14-3.25A90.59,90.59,0,0,1,186,361.56c.69-.85,1.37-1.7,2.1-2.55l1.89-2.2c1.12-1.32,2.23-2.79,3.29-4.26a87.67,87.67,0,0,0,5.86-9.24,70.05,70.05,0,0,0,4.49-9.75c.35-.83.54-1.67.82-2.51l.4-1.25.31-1.26c.19-.84.47-1.69.6-2.54l.42-2.54a46,46,0,0,0,0-10.5,82.35,82.35,0,0,0-2.21-11.11A160.28,160.28,0,0,0,195.63,279.3Z"/><path class="cls-3" d="M245.43,279.3a66.18,66.18,0,0,1,8.71,8.92,81.76,81.76,0,0,1,7.25,10.37,68,68,0,0,1,5.4,11.87c.32,1.07.66,2.14,1,3.23s.48,2.23.72,3.35l.33,1.69c.08.58.12,1.17.19,1.75.1,1.17.25,2.36.26,3.53a60.71,60.71,0,0,1-5.95,26.47,85.39,85.39,0,0,1-6.47,11.61c-1.22,1.86-2.53,3.63-4,5.44-.35.45-.74.92-1.19,1.44l-.84,1c-.58.69-1.15,1.42-1.73,2.15-2.3,2.92-4.49,6-6.5,9.07a75.51,75.51,0,0,0-5.33,9.44,42.38,42.38,0,0,0-3.37,9.46,6.08,6.08,0,0,0-.2,1.14l-.16,1.13a12.15,12.15,0,0,0-.17,2.09,22.06,22.06,0,0,0,.52,4.65c.34,1.65.84,3.39,1.38,5.12s1.25,3.5,1.95,5.27c1.44,3.53,3.11,7.08,4.89,10.62,3.55,7.09,7.55,14.13,11.56,21.36a92.81,92.81,0,0,1-9.67-7.79,118.56,118.56,0,0,1-8.79-8.86,97.08,97.08,0,0,1-7.82-10A58.44,58.44,0,0,1,221.11,413a35.49,35.49,0,0,1-1.94-7.19,23.58,23.58,0,0,1-.26-4l0-1.89a12.62,12.62,0,0,1,.11-1.87l.45-3.65c.24-1.16.52-2.32.79-3.48s.66-2.24,1-3.36.73-2.19,1.15-3.25a90.29,90.29,0,0,1,13.33-22.76c.69-.85,1.37-1.7,2.09-2.55l1.9-2.2c1.11-1.32,2.22-2.79,3.29-4.26a86,86,0,0,0,5.85-9.24,67.81,67.81,0,0,0,4.49-9.75c.36-.83.54-1.67.83-2.51l.39-1.25.31-1.26c.19-.84.47-1.69.6-2.54l.43-2.54a46.06,46.06,0,0,0,0-10.5,80.83,80.83,0,0,0-2.21-11.11A161.47,161.47,0,0,0,245.43,279.3Z"/><path class="cls-3" d="M295.22,279.3a66.26,66.26,0,0,1,8.72,8.92,81.69,81.69,0,0,1,7.24,10.37,68,68,0,0,1,5.4,11.87c.32,1.07.66,2.14,1,3.23s.48,2.23.72,3.35l.33,1.69c.09.58.13,1.17.19,1.75.11,1.17.26,2.36.27,3.53a60.86,60.86,0,0,1-5.95,26.47,85.45,85.45,0,0,1-6.48,11.61c-1.21,1.86-2.52,3.63-3.95,5.44-.36.45-.75.92-1.2,1.44l-.83,1c-.59.69-1.16,1.42-1.74,2.15-2.3,2.92-4.48,6-6.49,9.07a74.27,74.27,0,0,0-5.33,9.44,42.42,42.42,0,0,0-3.38,9.46,7,7,0,0,0-.2,1.14l-.16,1.13a14.54,14.54,0,0,0-.17,2.09,22.11,22.11,0,0,0,.53,4.65,51.41,51.41,0,0,0,1.37,5.12c.58,1.75,1.25,3.5,2,5.27,1.44,3.53,3.11,7.08,4.88,10.62,3.56,7.09,7.55,14.13,11.57,21.36a91.89,91.89,0,0,1-9.68-7.79A118.56,118.56,0,0,1,285,434.8a97.08,97.08,0,0,1-7.82-10A58.44,58.44,0,0,1,270.9,413a36.84,36.84,0,0,1-1.94-7.19,23.54,23.54,0,0,1-.25-4l0-1.89a14.17,14.17,0,0,1,.1-1.87l.46-3.65c.23-1.16.52-2.32.78-3.48s.66-2.24,1-3.36.74-2.19,1.15-3.25a90.29,90.29,0,0,1,13.33-22.76c.69-.85,1.37-1.7,2.1-2.55l1.89-2.2c1.11-1.32,2.23-2.79,3.29-4.26a87.67,87.67,0,0,0,5.86-9.24,68.85,68.85,0,0,0,4.48-9.75c.36-.83.54-1.67.83-2.51l.4-1.25.31-1.26c.19-.84.47-1.69.6-2.54l.42-2.54a46,46,0,0,0,0-10.5,82.35,82.35,0,0,0-2.21-11.11A160.28,160.28,0,0,0,295.22,279.3Z"/></g></svg>