<svg xmlns="http://www.w3.org/2000/svg" viewBox="0 0 612 792"><defs><style>.cls-1,.cls-2{fill:none;stroke-miterlimit:10;stroke-width:14.17px;}.cls-1{stroke:#040006;}.cls-2{stroke:#98c5c8;}</style></defs><title>Nevera</title><g id="refri"><rect class="cls-1" x="78.54" y="59.85" width="454.93" height="672.31" rx="82.09"/><line class="cls-1" x1="533.46" y1="323.08" x2="78.54" y2="323.08"/><line class="cls-1" x1="146.41" y1="233.2" x2="146.41" y2="295.57"/><line class="cls-1" x1="146.41" y1="364.82" x2="146.41" y2="427.18"/><circle class="cls-2" cx="304.59" cy="191.92" r="19.51"/><line class="cls-2" x1="304.59" y1="102.48" x2="304.59" y2="172.41"/><line class="cls-2" x1="328.32" y1="108.05" x2="304.59" y2="130.35"/><line class="cls-2" x1="280.86" y1="107.77" x2="304.59" y2="130.06"/><line class="cls-2" x1="304.59" y1="281.35" x2="304.59" y2="211.42"/><line class="cls-2" x1="280.86" y1="275.78" x2="304.59" y2="253.48"/><line class="cls-2" x1="328.32" y1="276.07" x2="304.59" y2="253.77"/><line class="cls-2" x1="215.16" y1="194.2" x2="285.08" y2="194.2"/><line class="cls-2" x1="220.73" y1="170.46" x2="243.03" y2="194.2"/><line class="cls-2" x1="220.44" y1="217.93" x2="242.74" y2="194.2"/><line class="cls-2" x1="394.03" y1="194.2" x2="324.1" y2="194.2"/><line class="cls-2" x1="388.45" y1="217.93" x2="366.16" y2="194.2"/><line class="cls-2" x1="388.74" y1="170.46" x2="366.45" y2="194.2"/><line class="cls-2" x1="368.74" y1="127.24" x2="319.3" y2="176.69"/><line class="cls-2" x1="381.58" y1="147.97" x2="349.03" y2="146.95"/><line class="cls-2" x1="348.22" y1="114.2" x2="349.24" y2="146.75"/><line class="cls-2" x1="242.26" y1="253.72" x2="291.71" y2="204.28"/><line class="cls-2" x1="229.42" y1="233" x2="261.97" y2="234.02"/><line class="cls-2" x1="262.78" y1="266.77" x2="261.76" y2="234.22"/><line class="cls-2" x1="240.65" y1="128.86" x2="290.09" y2="178.3"/><line class="cls-2" x1="261.37" y1="116.02" x2="260.36" y2="148.56"/><line class="cls-2" x1="227.6" y1="149.37" x2="260.15" y2="148.36"/><line class="cls-2" x1="367.13" y1="255.34" x2="317.68" y2="205.89"/><line class="cls-2" x1="346.41" y1="268.18" x2="347.42" y2="235.63"/><line class="cls-2" x1="380.17" y1="234.82" x2="347.63" y2="235.84"/></g></svg>