<svg id="ollla" xmlns="http://www.w3.org/2000/svg" viewBox="0 0 612 792"><defs><style>.cls-1{fill:none;stroke:#040006;stroke-miterlimit:10;stroke-width:14.17px;}.cls-2{fill:#bf2e7d;}</style></defs><title>Olla</title><path class="cls-1" d="M109,372.3H503A16.74,16.74,0,0,1,519.71,389V563.76a84.61,84.61,0,0,1-84.61,84.61H176.9a84.61,84.61,0,0,1-84.61-84.61V389A16.74,16.74,0,0,1,109,372.3Z"/><path class="cls-1" d="M92.29,522.72a51.59,51.59,0,1,1,0-103.18"/><path class="cls-1" d="M519.71,522.72a51.59,51.59,0,0,0,0-103.18"/><path class="cls-1" d="M202.88,370.46a44.85,44.85,0,1,1,89.69,0"/><circle class="cls-1" cx="344.06" cy="294.8" r="38.06"/><circle class="cls-1" cx="253.72" cy="219.59" r="28.89"/><circle class="cls-1" cx="336.87" cy="168.16" r="24.54"/><path class="cls-2" d="M412,557.6a25.68,25.68,0,0,1,.07,7.93,31.57,31.57,0,0,1-2.43,7.81A46.64,46.64,0,0,1,400,586.66c-7.88,7.7-17.42,13.23-27.28,17.52L369,605.72l-3.77,1.42c-2.54.88-5.09,1.71-7.67,2.45a155.25,155.25,0,0,1-15.61,3.71c-5.25,1-10.55,1.61-15.86,2.14s-10.63.67-15.95.71-10.65-.25-16-.7-10.61-1.18-15.86-2.13a158.84,158.84,0,0,1-15.62-3.7c-2.57-.75-5.13-1.58-7.66-2.46l-3.77-1.42-3.74-1.54c-9.86-4.29-19.41-9.82-27.28-17.52a46.63,46.63,0,0,1-9.63-13.33,31.81,31.81,0,0,1-2.42-7.81,25.75,25.75,0,0,1,.07-7.94,31.55,31.55,0,0,0,2.39,7.18,33.48,33.48,0,0,0,4,6.09,40.63,40.63,0,0,0,5.1,5.06,53.87,53.87,0,0,0,5.78,4.27c8.11,5.15,17.22,8.71,26.55,11.43,18.74,5.36,38.43,7.46,58.06,7.51s39.32-2.13,58.06-7.49c9.33-2.72,18.45-6.28,26.56-11.44a48.49,48.49,0,0,0,10.87-9.34,33.14,33.14,0,0,0,4-6.09A30.89,30.89,0,0,0,412,557.6Z"/><path class="cls-2" d="M268.23,411a55,55,0,0,1,7.77,7.49,67.33,67.33,0,0,1,6.47,8.84,57.4,57.4,0,0,1,4.86,10.24c.29.93.6,1.86.88,2.81s.44,1.94.66,2.92l.31,1.49c.08.5.12,1,.18,1.53.11,1,.24,2.07.26,3.1a52.63,52.63,0,0,1-5,23.19,72.76,72.76,0,0,1-5.6,10.13c-1.05,1.63-2.19,3.17-3.44,4.76-.31.39-.66.81-1.06,1.27l-.7.82c-.48.58-1,1.21-1.46,1.82-1.94,2.47-3.8,5.06-5.51,7.67a62.75,62.75,0,0,0-4.53,7.92,36,36,0,0,0-2.9,7.82c-.19.64-.2,1.22-.33,1.84a13.75,13.75,0,0,0-.17,1.66,17.21,17.21,0,0,0,.35,3.82,41.93,41.93,0,0,0,1.08,4.32c.46,1.48,1,3,1.57,4.49,1.17,3,2.53,6.09,4,9.16,2.91,6.15,6.19,12.29,9.44,18.67a73.13,73.13,0,0,1-8.56-6.48,96.19,96.19,0,0,1-7.78-7.48,79.61,79.61,0,0,1-6.91-8.55,50.12,50.12,0,0,1-5.62-10.24,32.24,32.24,0,0,1-1.76-6.36,21.72,21.72,0,0,1-.25-3.53c0-1.1,0-2.27.1-3.34l.38-3.22c.2-1,.45-2.05.68-3.07s.57-2,.85-3,.63-1.93,1-2.85A77.44,77.44,0,0,1,259,480.9c.6-.74,1.19-1.48,1.83-2.22l1.61-1.87c.94-1.1,1.88-2.34,2.78-3.58a74,74,0,0,0,5-7.76,59.31,59.31,0,0,0,3.86-8.16c.31-.69.47-1.39.72-2.09l.34-1.05.28-1.05c.17-.69.42-1.4.54-2.1l.39-2.12a39.42,39.42,0,0,0,.18-8.8,73.94,73.94,0,0,0-1.67-9.49A151.34,151.34,0,0,0,268.23,411Z"/><path class="cls-2" d="M311,411a53.93,53.93,0,0,1,7.77,7.49,67.4,67.4,0,0,1,6.48,8.84,57.4,57.4,0,0,1,4.86,10.24c.29.93.6,1.86.87,2.81s.45,1.94.67,2.92l.3,1.49c.08.5.13,1,.19,1.53.1,1,.24,2.07.26,3.1a52.63,52.63,0,0,1-5,23.19,73.81,73.81,0,0,1-5.6,10.13c-1.06,1.63-2.2,3.17-3.44,4.76-.32.39-.66.81-1.06,1.27l-.7.82c-.49.58-1,1.21-1.46,1.82-1.95,2.47-3.81,5.06-5.51,7.67A62.84,62.84,0,0,0,305,507a36.49,36.49,0,0,0-2.89,7.82c-.19.64-.2,1.22-.33,1.84a12.12,12.12,0,0,0-.18,1.66,17.89,17.89,0,0,0,.36,3.82c.25,1.37.64,2.84,1.07,4.32s1,3,1.57,4.49c1.17,3,2.54,6.09,4,9.16,2.91,6.15,6.19,12.29,9.44,18.67a74.09,74.09,0,0,1-8.57-6.48,97.75,97.75,0,0,1-7.77-7.48,80.92,80.92,0,0,1-6.92-8.55,49.62,49.62,0,0,1-5.61-10.24,32.24,32.24,0,0,1-1.77-6.36,20.61,20.61,0,0,1-.24-3.53c0-1.1,0-2.27.1-3.34l.38-3.22c.2-1,.44-2.05.67-3.07s.57-2,.86-3,.63-1.93,1-2.85a77.15,77.15,0,0,1,11.55-19.84c.6-.74,1.19-1.48,1.82-2.22l1.62-1.87c.93-1.1,1.87-2.34,2.78-3.58a75.65,75.65,0,0,0,5-7.76,59.24,59.24,0,0,0,3.85-8.16c.31-.69.47-1.39.72-2.09l.35-1.05.27-1.05c.17-.69.42-1.4.54-2.1l.39-2.12a38.84,38.84,0,0,0,.18-8.8,70.62,70.62,0,0,0-1.67-9.49A149.83,149.83,0,0,0,311,411Z"/><path class="cls-2" d="M353.72,411a53.93,53.93,0,0,1,7.77,7.49,67.33,67.33,0,0,1,6.47,8.84,56.72,56.72,0,0,1,4.86,10.24c.3.93.61,1.86.88,2.81s.44,1.94.66,2.92l.31,1.49c.08.5.12,1,.18,1.53.11,1,.25,2.07.26,3.1a52.63,52.63,0,0,1-5,23.19,71.74,71.74,0,0,1-5.6,10.13c-1.05,1.63-2.19,3.17-3.44,4.76-.31.39-.65.81-1.06,1.27l-.69.82c-.49.58-1,1.21-1.47,1.82-1.94,2.47-3.8,5.06-5.51,7.67a64,64,0,0,0-4.53,7.92,36.55,36.55,0,0,0-2.9,7.82c-.19.64-.19,1.22-.32,1.84a12.12,12.12,0,0,0-.18,1.66,17.21,17.21,0,0,0,.35,3.82c.26,1.37.65,2.84,1.08,4.32s1,3,1.57,4.49c1.17,3,2.53,6.09,4,9.16,2.9,6.15,6.19,12.29,9.44,18.67a73.24,73.24,0,0,1-8.57-6.48,96.07,96.07,0,0,1-7.77-7.48,80.92,80.92,0,0,1-6.92-8.55,49.62,49.62,0,0,1-5.61-10.24,32.24,32.24,0,0,1-1.77-6.36,21.72,21.72,0,0,1-.25-3.53c0-1.1,0-2.27.1-3.34l.38-3.22c.2-1,.45-2.05.68-3.07s.57-2,.85-3,.64-1.93,1-2.85a77.18,77.18,0,0,1,11.56-19.84c.6-.74,1.19-1.48,1.82-2.22l1.61-1.87c.94-1.1,1.88-2.34,2.78-3.58a74.09,74.09,0,0,0,5-7.76,60.43,60.43,0,0,0,3.85-8.16c.31-.69.47-1.39.72-2.09l.35-1.05.27-1.05c.17-.69.42-1.4.54-2.1l.39-2.12a39.42,39.42,0,0,0,.18-8.8,70.62,70.62,0,0,0-1.67-9.49A151.34,151.34,0,0,0,353.72,411Z"/></svg>